<svg width="24" height="25" viewBox="0 0 24 25" fill="none" xmlns="http://www.w3.org/2000/svg">
<path d="M1.09091 2.71869V9.26499C1.09091 9.87217 1.57552 10.3555 2.1814 10.3555H8.72769C9.33488 10.3555 9.81818 9.87086 9.81818 9.26499V2.71869C9.81818 2.1115 9.33357 1.6282 8.72769 1.6282H2.1814C1.57421 1.6282 1.09091 2.11281 1.09091 2.71869ZM0 2.71869C0 1.51394 0.968109 0.537292 2.1814 0.537292H8.72769C9.93245 0.537292 10.9091 1.5054 10.9091 2.71869V9.26499C10.9091 10.4697 9.94098 11.4464 8.72769 11.4464H2.1814C0.976645 11.4464 0 10.4783 0 9.26499V2.71869ZM1.09091 15.8096V22.3559C1.09091 22.9631 1.57552 23.4464 2.1814 23.4464H8.72769C9.33488 23.4464 9.81818 22.9618 9.81818 22.3559V15.8096C9.81818 15.2024 9.33357 14.7191 8.72769 14.7191H2.1814C1.57421 14.7191 1.09091 15.2037 1.09091 15.8096ZM0 15.8096C0 14.6048 0.968109 13.6282 2.1814 13.6282H8.72769C9.93245 13.6282 10.9091 14.5963 10.9091 15.8096V22.3559C10.9091 23.5606 9.94098 24.5373 8.72769 24.5373H2.1814C0.976645 24.5373 0 23.5692 0 22.3559V15.8096ZM14.1818 15.8096V22.3559C14.1818 22.9631 14.6664 23.4464 15.2723 23.4464H21.8186C22.4258 23.4464 22.9091 22.9618 22.9091 22.3559V15.8096C22.9091 15.2024 22.4245 14.7191 21.8186 14.7191H15.2723C14.6651 14.7191 14.1818 15.2037 14.1818 15.8096ZM13.0909 15.8096C13.0909 14.6048 14.059 13.6282 15.2723 13.6282H21.8186C23.0234 13.6282 24 14.5963 24 15.8096V22.3559C24 23.5606 23.0319 24.5373 21.8186 24.5373H15.2723C14.0676 24.5373 13.0909 23.5692 13.0909 22.3559V15.8096ZM14.1818 2.71869V9.26499C14.1818 9.87217 14.6664 10.3555 15.2723 10.3555H21.8186C22.4258 10.3555 22.9091 9.87086 22.9091 9.26499V2.71869C22.9091 2.1115 22.4245 1.6282 21.8186 1.6282H15.2723C14.6651 1.6282 14.1818 2.11281 14.1818 2.71869ZM13.0909 2.71869C13.0909 1.51394 14.059 0.537292 15.2723 0.537292H21.8186C23.0234 0.537292 24 1.5054 24 2.71869V9.26499C24 10.4697 23.0319 11.4464 21.8186 11.4464H15.2723C14.0676 11.4464 13.0909 10.4783 13.0909 9.26499V2.71869Z" fill="#2D3748"/>
</svg>
