<svg width="32" height="32" viewBox="0 0 32 32" fill="none" xmlns="http://www.w3.org/2000/svg">
<path fill-rule="evenodd" clip-rule="evenodd" d="M23.8664 4.63884C25.4784 5.2615 26.7518 6.53617 27.3771 8.14817C27.7344 9.09217 27.9211 10.0935 27.9384 11.1042C28.0131 12.3802 28.0131 12.7935 28.0131 16.0508C28.0131 19.3082 27.9958 19.7148 27.9384 20.9975C27.9184 21.9948 27.7304 22.9788 27.3798 23.9122C26.7544 25.5242 25.4811 26.7975 23.8691 27.4228C22.9358 27.7722 21.9504 27.9615 20.9544 27.9815C19.6811 28.0548 19.2638 28.0548 16.0078 28.0548C12.7518 28.0548 12.3451 28.0375 11.0611 27.9815C10.0611 27.9495 9.07577 27.7442 8.14777 27.3815C6.53444 26.7575 5.26111 25.4828 4.63577 23.8722C4.28511 22.9375 4.09711 21.9535 4.07711 20.9562C4.00244 19.6802 4.00244 19.2655 4.00244 16.0095C4.00244 12.7522 4.01977 12.3455 4.07711 11.0628C4.09711 10.0655 4.28511 9.0815 4.63577 8.14817C5.25977 6.53617 6.53311 5.2615 8.14644 4.63884C9.07844 4.28684 10.0638 4.09884 11.0584 4.07884C12.3318 4.00684 12.7491 4.00684 16.0051 4.00684H16.0051C19.2611 4.00684 19.6678 4.02284 20.9518 4.07884C21.9491 4.10017 22.9344 4.28817 23.8664 4.63884ZM25.3384 23.1082C25.6051 22.3868 25.7438 21.6255 25.7531 20.8575V20.8588H25.7678C25.8251 19.5842 25.8251 19.2349 25.8251 15.9872V15.9868C25.8251 12.7375 25.8104 12.3815 25.7531 11.1135C25.7411 10.3535 25.5998 9.60017 25.3384 8.88817C24.9318 7.83884 24.1038 7.0095 23.0558 6.6055C22.3424 6.34017 21.5904 6.20017 20.8291 6.19084C19.5398 6.1175 19.2064 6.1175 15.9571 6.1175C12.7078 6.1175 12.3518 6.1335 11.0838 6.19084C10.3251 6.2015 9.57044 6.3415 8.85844 6.6055C7.80644 7.00817 6.97311 7.83617 6.56644 8.88817C6.29977 9.6095 6.16111 10.3695 6.15177 11.1375C6.08111 12.4295 6.08111 12.7615 6.08111 16.0108C6.08111 19.2588 6.09444 19.6162 6.15177 20.8828C6.16377 21.6428 6.30511 22.3962 6.56644 23.1082C6.97311 24.1588 7.80644 24.9882 8.85844 25.3895C9.57044 25.6548 10.3251 25.7948 11.0838 25.8042C12.3744 25.8775 12.7064 25.8775 15.9571 25.8775C19.2051 25.8775 19.5624 25.8628 20.8291 25.8042C21.5904 25.7935 22.3424 25.6548 23.0558 25.3895C24.1038 24.9868 24.9318 24.1575 25.3384 23.1082ZM22.4079 11.0468C23.2017 11.0468 23.8452 10.4033 23.8452 9.60949C23.8452 8.81568 23.2017 8.17216 22.4079 8.17216C21.6141 8.17216 20.9705 8.81568 20.9705 9.60949C20.9705 10.4033 21.6141 11.0468 22.4079 11.0468ZM15.9985 9.83618C12.5931 9.83618 9.83447 12.5962 9.83447 16.0002C9.83447 19.4055 12.5931 22.1655 15.9985 22.1655C19.4011 22.1655 22.1625 19.4055 22.1625 16.0002C22.1625 12.5962 19.4011 9.83618 15.9985 9.83618ZM15.9985 20.0055C13.7865 20.0055 11.9931 18.2122 11.9931 16.0015C11.9931 13.7895 13.7865 11.9975 15.9985 11.9975C18.2105 11.9975 20.0011 13.7895 20.0011 16.0015C20.0011 18.2122 18.2105 20.0055 15.9985 20.0055Z" fill="url(#paint0_linear)"/>
<defs>
<linearGradient id="paint0_linear" x1="17.3332" y1="2.66683" x2="7.33318" y2="28.6668" gradientUnits="userSpaceOnUse">
<stop stop-color="#405DE6"/>
<stop offset="0.117597" stop-color="#5851DB"/>
<stop offset="0.225179" stop-color="#833AB4"/>
<stop offset="0.337513" stop-color="#C13584"/>
<stop offset="0.455854" stop-color="#E1306C"/>
<stop offset="0.559887" stop-color="#FD1D1D"/>
<stop offset="0.660315" stop-color="#F56040"/>
<stop offset="0.778984" stop-color="#F77737"/>
<stop offset="0.897488" stop-color="#FCAF45"/>
<stop offset="1" stop-color="#FFDC80"/>
</linearGradient>
</defs>
</svg>
