<svg width="32" height="32" viewBox="0 0 32 32" fill="none" xmlns="http://www.w3.org/2000/svg">
<path d="M29.9454 8.01667C28.9193 8.4718 27.8164 8.77939 26.659 8.9177C27.8402 8.20951 28.7477 7.08814 29.1749 5.75187C28.0692 6.40768 26.8446 6.88387 25.5412 7.14043C24.4974 6.02832 23.0104 5.3335 21.3645 5.3335C18.2044 5.3335 15.6421 7.89546 15.6421 11.0556C15.6421 11.504 15.6928 11.9408 15.7904 12.3596C11.0346 12.121 6.81817 9.84287 3.99596 6.38084C3.50337 7.22596 3.22119 8.20891 3.22119 9.25762C3.22119 11.2429 4.23136 12.9943 5.76681 14.0206C4.82889 13.9907 3.94645 13.7334 3.17503 13.3048C3.17448 13.3287 3.17448 13.3526 3.17448 13.3767C3.17448 16.1492 5.14695 18.4619 7.76463 18.9876C7.28449 19.1184 6.77896 19.1884 6.25709 19.1884C5.88837 19.1884 5.52991 19.1524 5.18045 19.0858C5.90865 21.359 8.02188 23.0135 10.5259 23.0595C8.56752 24.5944 6.1002 25.5092 3.41921 25.5092C2.95733 25.5092 2.50185 25.482 2.0542 25.4291C4.58655 27.0527 7.59439 28.0002 10.8258 28.0002C21.351 28.0002 27.1068 19.2808 27.1068 11.7191C27.1068 11.471 27.1012 11.2242 27.0901 10.9788C28.2082 10.172 29.1784 9.16419 29.9454 8.01667Z" fill="#1DA1F2"/>
</svg>
